<svg width="44" height="44" viewBox="0 0 44 44" fill="none" xmlns="http://www.w3.org/2000/svg">
<g clip-path="url(#clip0_1_3832)">
<path d="M35.0345 3.26932H14.8496V11.6398H39.3455V7.57861C39.3455 5.20224 37.4116 3.26932 35.0345 3.26932Z" fill="url(#paint0_linear_1_3832)"/>
<path d="M23.6083 12.9279H0V5.16095C0 2.31494 2.31595 0 5.16296 0H12.7114C13.4616 0 14.1844 0.158112 14.841 0.4552C15.7581 0.868439 16.546 1.54956 17.0985 2.43948L23.6083 12.9279Z" fill="url(#paint1_linear_1_3832)"/>
<path d="M44 14.6668V39.6853C44 42.0647 42.063 44 39.6826 44H4.31735C1.93695 44 0 42.0647 0 39.6853V10.3511H39.6826C42.063 10.3511 44 12.287 44 14.6668Z" fill="url(#paint2_linear_1_3832)"/>
<path d="M44 14.6668V39.6853C44 42.0647 42.063 44 39.6826 44H22V10.3511H39.6826C42.063 10.3511 44 12.287 44 14.6668Z" fill="url(#paint3_linear_1_3832)"/>
<path d="M33.5739 27.175C33.5739 33.5576 28.3817 38.7501 21.9998 38.7501C15.618 38.7501 10.4258 33.5576 10.4258 27.175C10.4258 20.7935 15.618 15.601 21.9998 15.601C28.3817 15.601 33.5739 20.7935 33.5739 27.175Z" fill="#E7ECFC"/>
<path d="M33.574 27.175C33.574 33.5576 28.3819 38.7501 22 38.7501V15.601C28.3819 15.601 33.574 20.7935 33.574 27.175Z" fill="#E7ECFC"/>
<path d="M25.7307 27.317C25.4894 27.5215 25.1936 27.6212 24.9006 27.6212C24.5337 27.6212 24.1691 27.4658 23.914 27.163L23.2892 26.4224V31.2708C23.2892 31.9825 22.7119 32.5599 22.0002 32.5599C21.2885 32.5599 20.7111 31.9825 20.7111 31.2708V26.4224L20.0864 27.163C19.6265 27.7071 18.8138 27.7766 18.2696 27.317C17.7258 26.8582 17.656 26.0451 18.1149 25.5009L20.6665 22.476C20.9991 22.0826 21.4846 21.8563 22.0002 21.8563C22.5158 21.8563 23.0012 22.0826 23.3339 22.476L25.8855 25.5009C26.3444 26.0451 26.2746 26.8582 25.7307 27.317Z" fill="url(#paint4_linear_1_3832)"/>
<path d="M25.7306 27.317C25.4892 27.5215 25.1935 27.6212 24.9004 27.6212C24.5335 27.6212 24.1689 27.4658 23.9138 27.163L23.2891 26.4224V31.2708C23.2891 31.9825 22.7117 32.5599 22 32.5599V21.8563C22.5156 21.8563 23.001 22.0826 23.3337 22.476L25.8853 25.5009C26.3442 26.0451 26.2744 26.8582 25.7306 27.317Z" fill="url(#paint5_linear_1_3832)"/>
</g>
<defs>
<linearGradient id="paint0_linear_1_3832" x1="14.8496" y1="7.45457" x2="37.6648" y2="12.583" gradientUnits="userSpaceOnUse">
<stop stop-color="#4C60E7"/>
<stop offset="1" stop-color="#8E93F8"/>
</linearGradient>
<linearGradient id="paint1_linear_1_3832" x1="1.74599e-08" y1="6.46394" x2="22.6538" y2="9.64154" gradientUnits="userSpaceOnUse">
<stop stop-color="#4C60E7"/>
<stop offset="1" stop-color="#8E93F8"/>
</linearGradient>
<linearGradient id="paint2_linear_1_3832" x1="3.2541e-08" y1="27.1756" x2="42.6218" y2="31.4564" gradientUnits="userSpaceOnUse">
<stop stop-color="#4C60E7"/>
<stop offset="1" stop-color="#8E93F8"/>
</linearGradient>
<linearGradient id="paint3_linear_1_3832" x1="22" y1="27.1756" x2="43.4717" y2="28.2539" gradientUnits="userSpaceOnUse">
<stop stop-color="#4C60E7"/>
<stop offset="1" stop-color="#8E93F8"/>
</linearGradient>
<linearGradient id="paint4_linear_1_3832" x1="17.8115" y1="27.2081" x2="25.9788" y2="27.6991" gradientUnits="userSpaceOnUse">
<stop stop-color="#4C60E7"/>
<stop offset="1" stop-color="#8E93F8"/>
</linearGradient>
<linearGradient id="paint5_linear_1_3832" x1="22" y1="27.2081" x2="26.0947" y2="27.3312" gradientUnits="userSpaceOnUse">
<stop stop-color="#4C60E7"/>
<stop offset="1" stop-color="#8E93F8"/>
</linearGradient>
<clipPath id="clip0_1_3832">
<rect width="44" height="44" fill="white"/>
</clipPath>
</defs>
</svg>
